<?xml version="1.0" standalone="no"?>
<!DOCTYPE svg PUBLIC "-//W3C//DTD SVG 20010904//EN"
 "http://www.w3.org/TR/2001/REC-SVG-20010904/DTD/svg10.dtd">
<svg version="1.0" xmlns="http://www.w3.org/2000/svg"
 width="864.000000pt" height="289.000000pt" viewBox="0 0 864.000000 289.000000"
 preserveAspectRatio="xMidYMid meet">

<g transform="translate(0.000000,289.000000) scale(0.100000,-0.100000)"
fill="#000000" stroke="none">
<path d="M1603 2347 c-22 -12 -280 -263 -349 -340 -29 -31 -33 -41 -24 -57 10
-19 25 -20 408 -22 l397 -3 -139 -67 c-76 -38 -142 -68 -147 -68 -28 0 -61
-138 -149 -610 -27 -145 -59 -217 -120 -274 -52 -49 -98 -66 -178 -66 -91 0
-157 40 -208 127 -39 68 -52 63 -241 -94 l-165 -138 5 -37 c6 -47 78 -141 149
-195 70 -54 128 -85 213 -114 63 -21 87 -24 230 -24 139 0 170 3 235 24 221
68 398 216 498 417 49 96 68 162 126 444 25 118 64 301 86 405 23 105 54 253
71 330 16 77 37 169 45 204 9 35 17 87 18 115 l1 51 -370 2 c-280 2 -375 -1
-392 -10z"/>
<path d="M3256 1909 c-14 -11 -30 -28 -35 -37 -5 -10 -41 -156 -81 -326 -39
-170 -77 -327 -85 -348 -54 -159 -216 -206 -314 -91 l-38 45 -88 -43 c-48 -24
-91 -52 -96 -61 -24 -44 89 -172 178 -202 164 -56 368 -7 478 115 69 76 109
192 186 534 12 55 37 164 55 243 48 204 52 192 -50 192 -69 0 -88 -4 -110 -21z"/>
<path d="M4472 1905 c-23 -19 -33 -41 -46 -97 -38 -162 -169 -750 -191 -851
-14 -65 -19 -109 -13 -113 5 -3 35 -8 66 -11 78 -6 122 17 142 75 8 23 17 42
20 42 3 0 13 -18 23 -39 32 -70 145 -102 266 -77 160 34 269 129 331 291 18
46 23 81 24 151 0 83 -2 96 -32 157 -38 77 -86 119 -168 147 -127 44 -264 5
-264 -75 0 -12 7 -38 15 -58 14 -35 15 -35 73 -34 48 1 66 -3 95 -23 92 -63
91 -207 -3 -301 -79 -79 -175 -97 -259 -48 -21 13 -43 18 -58 14 -13 -3 -23
-3 -23 -1 0 2 11 53 26 112 27 117 46 156 98 202 l34 29 -20 59 c-27 79 -25
116 17 282 19 79 35 154 35 168 0 23 -2 24 -79 24 -70 0 -83 -3 -109 -25z"/>
<path d="M5467 1895 c-89 -31 -121 -83 -161 -262 -18 -81 -66 -286 -105 -455
-39 -168 -71 -313 -71 -321 0 -38 161 -33 206 7 26 22 43 78 86 286 6 30 16
58 22 62 6 4 99 8 207 8 181 0 198 2 222 20 30 24 56 88 60 145 l2 40 -225 5
c-178 4 -224 8 -222 18 28 139 47 210 60 225 13 15 38 17 230 17 200 0 217 1
248 21 19 11 39 30 45 42 16 29 40 137 33 148 -9 16 -592 11 -637 -6z"/>
<path d="M726 1598 c-22 -31 -20 -45 9 -73 24 -25 25 -25 222 -25 220 0 243 6
243 59 0 57 -15 61 -248 61 -207 0 -211 0 -226 -22z"/>
<path d="M3729 1586 c-123 -35 -237 -122 -292 -223 -57 -106 -71 -243 -33
-333 81 -192 320 -261 543 -155 309 146 339 583 47 695 -72 28 -198 35 -265
16z m179 -196 c49 -30 72 -75 72 -141 0 -131 -94 -232 -216 -233 -164 -1 -219
198 -90 326 65 66 170 87 234 48z"/>
<path d="M7031 1584 c-200 -54 -341 -233 -341 -434 0 -168 95 -282 266 -317
99 -20 190 -7 289 42 75 37 165 115 165 143 0 12 -20 27 -61 45 -33 15 -65 27
-71 27 -5 0 -24 -11 -42 -25 -111 -84 -258 -71 -310 29 -42 82 -17 195 59 265
89 82 216 79 273 -7 16 -24 18 -23 -208 -121 -130 -56 -125 -52 -111 -91 24
-70 63 -75 194 -24 248 96 323 128 335 143 34 41 -8 181 -75 247 -83 83 -227
114 -362 78z"/>
<path d="M7870 1582 c-88 -30 -140 -60 -196 -116 -159 -160 -180 -411 -44
-546 65 -66 139 -93 250 -93 131 0 236 42 329 131 58 55 55 74 -20 106 -33 14
-65 26 -70 26 -6 0 -27 -13 -47 -29 -47 -36 -92 -51 -154 -51 -52 0 -79 10
-115 43 -35 31 -30 49 7 30 25 -12 37 -12 68 -2 74 24 417 160 429 171 8 6 13
32 13 62 0 60 -42 156 -86 198 -82 77 -248 108 -364 70z m200 -192 c25 -18 48
-56 38 -64 -3 -3 -316 -141 -345 -153 -28 -11 1 109 38 155 68 87 194 116 269
62z"/>
<path d="M6199 1557 c-75 -40 -90 -77 -165 -403 -37 -161 -64 -300 -60 -309 5
-15 18 -17 85 -14 125 6 119 -5 211 394 32 136 47 147 217 155 118 5 123 6
153 35 28 27 41 56 56 133 l7 32 -145 0 c-138 0 -147 -1 -182 -25 -20 -14 -39
-25 -41 -25 -3 0 -5 11 -5 25 0 23 -4 25 -43 25 -27 0 -61 -9 -88 -23z"/>
<path d="M256 1359 c-32 -25 -33 -59 -3 -87 23 -22 28 -22 369 -22 l347 0 20
26 c26 33 26 45 0 78 l-20 26 -343 0 c-332 0 -344 -1 -370 -21z"/>
<path d="M532 1104 c-27 -19 -29 -64 -4 -87 15 -14 41 -17 141 -17 67 0 131 5
142 10 13 7 19 21 19 45 0 55 -25 65 -160 65 -88 0 -121 -4 -138 -16z"/>
</g>
</svg>
